<svg width="73" height="73" viewBox="0 0 73 73" fill="none" xmlns="http://www.w3.org/2000/svg">
<path d="M54.5347 0.912109C64.6836 0.912109 72.9116 9.14015 72.9116 19.2891V54.5361C72.9116 64.685 64.6836 72.9121 54.5347 72.9121H19.2876C9.13868 72.9121 0.911621 64.685 0.911621 54.5361L0.911621 19.2891C0.911621 9.14015 9.13868 0.912109 19.2876 0.912109L54.5347 0.912109ZM17.6792 45.2363C16.2294 45.2363 15.0532 46.4115 15.0532 47.8613L15.0532 56.415C15.0532 57.8649 16.2294 59.041 17.6792 59.041H32.9995C34.4494 59.041 35.6255 57.8649 35.6255 56.415V47.8613C35.6255 46.4115 34.4494 45.2363 32.9995 45.2363H17.6792ZM40.8218 35.627C39.3721 35.6271 38.1969 36.8023 38.1968 38.252V56.1445C38.1968 57.5943 39.3721 58.7694 40.8218 58.7695H56.1431C57.5929 58.7695 58.7681 57.5944 58.7681 56.1445V38.252C58.768 36.8022 57.5928 35.627 56.1431 35.627H40.8218ZM17.6792 15.0557C16.2295 15.0558 15.0542 16.2309 15.0542 17.6807L15.0542 40.0391C15.0542 41.4888 16.2295 42.6639 17.6792 42.6641H33.0005C34.4503 42.6641 35.6255 41.4889 35.6255 40.0391L35.6255 17.6807C35.6255 16.2308 34.4503 15.0557 33.0005 15.0557H17.6792ZM40.8218 15.0566C39.372 15.0567 38.1968 16.2318 38.1968 17.6816L38.1968 30.4307C38.1968 31.8805 39.372 33.0566 40.8218 33.0566H56.1431C57.5928 33.0566 58.7681 31.8805 58.7681 30.4307L58.7681 17.6816C58.7681 16.2318 57.5929 15.0567 56.1431 15.0566L40.8218 15.0566Z" fill="#171715"/>
</svg>
