<svg width="1744" height="705" viewBox="0 0 1744 705" fill="none" xmlns="http://www.w3.org/2000/svg">
<path d="M322.802 263.405C339.204 247.003 365.797 247.003 382.198 263.405L441.595 322.802C457.997 339.203 457.997 365.796 441.595 382.198L382.198 441.595C365.796 457.997 339.204 457.997 322.802 441.595L263.405 382.198C247.003 365.796 247.003 339.204 263.405 322.802L322.802 263.405ZM334.412 398.055C332.069 400.398 332.069 404.197 334.412 406.54L348.703 420.831C351.046 423.174 354.846 423.174 357.189 420.831L382.645 395.375C384.988 393.032 384.987 389.233 382.645 386.89L368.353 372.599C366.01 370.256 362.211 370.256 359.868 372.599L334.412 398.055ZM356.743 344.016C354.399 346.359 354.399 350.158 356.743 352.501L386.441 382.2C388.784 384.543 392.583 384.543 394.926 382.2L420.382 356.744C422.725 354.401 422.725 350.602 420.382 348.259L390.684 318.56C388.341 316.217 384.542 316.217 382.198 318.56L356.743 344.016ZM284.618 348.258C282.275 350.601 282.275 354.4 284.618 356.743L321.686 393.811C324.029 396.154 327.828 396.154 330.171 393.811L355.627 368.355C357.97 366.011 357.97 362.212 355.627 359.869L318.56 322.802C316.217 320.459 312.417 320.459 310.074 322.802L284.618 348.258ZM322.802 310.076C320.459 312.419 320.459 316.218 322.802 318.561L344.015 339.774C346.359 342.117 350.158 342.117 352.501 339.774L377.957 314.318C380.3 311.975 380.3 308.176 377.957 305.833L356.743 284.62C354.4 282.277 350.601 282.277 348.258 284.62L322.802 310.076Z" fill="#171715"/>
<path d="M535.614 389.82L534.27 360.252L604.734 287.1H632.766L574.206 349.308L560.382 364.476L535.614 389.82ZM513.342 421.5V287.1H538.302V421.5H513.342ZM607.038 421.5L555.582 360.252L572.094 342.012L636.222 421.5H607.038ZM711.831 421.5V400.764L710.487 396.348V360.06C710.487 353.02 708.375 347.58 704.151 343.74C699.927 339.772 693.527 337.788 684.951 337.788C679.191 337.788 673.495 338.684 667.863 340.476C662.359 342.268 657.687 344.764 653.847 347.964L644.439 330.492C649.943 326.268 656.471 323.132 664.023 321.084C671.703 318.908 679.639 317.82 687.831 317.82C702.679 317.82 714.135 321.404 722.199 328.572C730.391 335.612 734.487 346.556 734.487 361.404V421.5H711.831ZM679.575 422.844C671.895 422.844 665.175 421.564 659.415 419.004C653.655 416.316 649.175 412.668 645.975 408.06C642.903 403.324 641.367 398.012 641.367 392.124C641.367 386.364 642.711 381.18 645.399 376.572C648.215 371.964 652.759 368.316 659.031 365.628C665.303 362.94 673.623 361.596 683.991 361.596H713.751V377.532H685.719C677.527 377.532 672.023 378.876 669.207 381.564C666.391 384.124 664.983 387.324 664.983 391.164C664.983 395.516 666.711 398.972 670.167 401.532C673.623 404.092 678.423 405.372 684.567 405.372C690.455 405.372 695.703 404.028 700.311 401.34C705.047 398.652 708.439 394.684 710.487 389.436L714.519 403.836C712.215 409.852 708.055 414.524 702.039 417.852C696.151 421.18 688.663 422.844 679.575 422.844ZM803.88 422.844C792.616 422.844 783.912 419.964 777.768 414.204C771.624 408.316 768.552 399.676 768.552 388.284V296.316H792.552V387.708C792.552 392.572 793.768 396.348 796.2 399.036C798.76 401.724 802.28 403.068 806.76 403.068C812.136 403.068 816.616 401.66 820.2 398.844L826.92 415.932C824.104 418.236 820.648 419.964 816.552 421.116C812.456 422.268 808.232 422.844 803.88 422.844ZM751.656 338.94V319.74H820.008V338.94H751.656ZM909.831 421.5V400.764L908.487 396.348V360.06C908.487 353.02 906.375 347.58 902.151 343.74C897.927 339.772 891.527 337.788 882.951 337.788C877.191 337.788 871.495 338.684 865.863 340.476C860.359 342.268 855.687 344.764 851.847 347.964L842.439 330.492C847.943 326.268 854.471 323.132 862.023 321.084C869.703 318.908 877.639 317.82 885.831 317.82C900.679 317.82 912.135 321.404 920.199 328.572C928.391 335.612 932.487 346.556 932.487 361.404V421.5H909.831ZM877.575 422.844C869.895 422.844 863.175 421.564 857.415 419.004C851.655 416.316 847.175 412.668 843.975 408.06C840.903 403.324 839.367 398.012 839.367 392.124C839.367 386.364 840.711 381.18 843.399 376.572C846.215 371.964 850.759 368.316 857.031 365.628C863.303 362.94 871.623 361.596 881.991 361.596H911.751V377.532H883.719C875.527 377.532 870.023 378.876 867.207 381.564C864.391 384.124 862.983 387.324 862.983 391.164C862.983 395.516 864.711 398.972 868.167 401.532C871.623 404.092 876.423 405.372 882.567 405.372C888.455 405.372 893.703 404.028 898.311 401.34C903.047 398.652 906.439 394.684 908.487 389.436L912.519 403.836C910.215 409.852 906.055 414.524 900.039 417.852C894.151 421.18 886.663 422.844 877.575 422.844ZM963.288 421.5V279.036H987.288V421.5H963.288ZM1064.87 422.844C1054.37 422.844 1045.03 420.604 1036.84 416.124C1028.64 411.516 1022.18 405.244 1017.44 397.308C1012.71 389.372 1010.34 380.348 1010.34 370.236C1010.34 359.996 1012.71 350.972 1017.44 343.164C1022.18 335.228 1028.64 329.02 1036.84 324.54C1045.03 320.06 1054.37 317.82 1064.87 317.82C1075.49 317.82 1084.9 320.06 1093.09 324.54C1101.41 329.02 1107.88 335.164 1112.48 342.972C1117.22 350.78 1119.59 359.868 1119.59 370.236C1119.59 380.348 1117.22 389.372 1112.48 397.308C1107.88 405.244 1101.41 411.516 1093.09 416.124C1084.9 420.604 1075.49 422.844 1064.87 422.844ZM1064.87 402.3C1070.76 402.3 1076 401.02 1080.61 398.46C1085.22 395.9 1088.8 392.188 1091.36 387.324C1094.05 382.46 1095.4 376.764 1095.4 370.236C1095.4 363.58 1094.05 357.884 1091.36 353.148C1088.8 348.284 1085.22 344.572 1080.61 342.012C1076 339.452 1070.82 338.172 1065.06 338.172C1059.17 338.172 1053.92 339.452 1049.32 342.012C1044.84 344.572 1041.25 348.284 1038.56 353.148C1035.88 357.884 1034.53 363.58 1034.53 370.236C1034.53 376.764 1035.88 382.46 1038.56 387.324C1041.25 392.188 1044.84 395.9 1049.32 398.46C1053.92 401.02 1059.11 402.3 1064.87 402.3ZM1189 460.092C1179.53 460.092 1170.25 458.812 1161.16 456.252C1152.2 453.82 1144.84 450.236 1139.08 445.5L1149.83 427.452C1154.31 431.164 1159.95 434.108 1166.73 436.284C1173.64 438.588 1180.62 439.74 1187.66 439.74C1198.92 439.74 1207.18 437.116 1212.43 431.868C1217.67 426.748 1220.3 419.004 1220.3 408.636V390.396L1222.22 367.164L1221.45 343.932V318.972H1244.3V405.948C1244.3 424.508 1239.56 438.14 1230.09 446.844C1220.62 455.676 1206.92 460.092 1189 460.092ZM1185.93 416.892C1176.2 416.892 1167.37 414.844 1159.43 410.748C1151.63 406.524 1145.42 400.7 1140.81 393.276C1136.33 385.852 1134.09 377.148 1134.09 367.164C1134.09 357.308 1136.33 348.668 1140.81 341.244C1145.42 333.82 1151.63 328.06 1159.43 323.964C1167.37 319.868 1176.2 317.82 1185.93 317.82C1194.63 317.82 1202.44 319.548 1209.35 323.004C1216.27 326.46 1221.77 331.836 1225.87 339.132C1230.09 346.428 1232.2 355.772 1232.2 367.164C1232.2 378.556 1230.09 387.964 1225.87 395.388C1221.77 402.684 1216.27 408.124 1209.35 411.708C1202.44 415.164 1194.63 416.892 1185.93 416.892ZM1189.58 396.54C1195.59 396.54 1200.97 395.324 1205.71 392.892C1210.44 390.332 1214.09 386.876 1216.65 382.524C1219.34 378.044 1220.68 372.924 1220.68 367.164C1220.68 361.404 1219.34 356.348 1216.65 351.996C1214.09 347.516 1210.44 344.124 1205.71 341.82C1200.97 339.388 1195.59 338.172 1189.58 338.172C1183.56 338.172 1178.12 339.388 1173.26 341.82C1168.52 344.124 1164.81 347.516 1162.12 351.996C1159.56 356.348 1158.28 361.404 1158.28 367.164C1158.28 372.924 1159.56 378.044 1162.12 382.524C1164.81 386.876 1168.52 390.332 1173.26 392.892C1178.12 395.324 1183.56 396.54 1189.58 396.54ZM1319.24 422.844C1310.54 422.844 1302.86 421.244 1296.2 418.044C1289.55 414.716 1284.36 409.724 1280.65 403.068C1276.94 396.284 1275.08 387.772 1275.08 377.532V318.972H1299.08V374.268C1299.08 383.484 1301.13 390.396 1305.23 395.004C1309.45 399.484 1315.4 401.724 1323.08 401.724C1328.71 401.724 1333.58 400.572 1337.67 398.268C1341.9 395.964 1345.16 392.508 1347.47 387.9C1349.9 383.292 1351.11 377.596 1351.11 370.812V318.972H1375.11V421.5H1352.27V393.852L1356.3 402.3C1352.84 408.956 1347.79 414.076 1341.13 417.66C1334.47 421.116 1327.18 422.844 1319.24 422.844ZM1454.73 422.844C1443.34 422.844 1433.35 420.604 1424.78 416.124C1416.33 411.516 1409.74 405.244 1405 397.308C1400.39 389.372 1398.09 380.348 1398.09 370.236C1398.09 359.996 1400.33 350.972 1404.81 343.164C1409.42 335.228 1415.69 329.02 1423.63 324.54C1431.69 320.06 1440.84 317.82 1451.08 317.82C1461.07 317.82 1469.96 319.996 1477.77 324.348C1485.58 328.7 1491.72 334.844 1496.2 342.78C1500.68 350.716 1502.92 360.06 1502.92 370.812C1502.92 371.836 1502.86 372.988 1502.73 374.268C1502.73 375.548 1502.67 376.764 1502.54 377.916H1417.1V361.98H1489.87L1480.46 366.972C1480.59 361.084 1479.37 355.9 1476.81 351.42C1474.25 346.94 1470.73 343.42 1466.25 340.86C1461.9 338.3 1456.84 337.02 1451.08 337.02C1445.19 337.02 1440.01 338.3 1435.53 340.86C1431.18 343.42 1427.72 347.004 1425.16 351.612C1422.73 356.092 1421.51 361.404 1421.51 367.548V371.388C1421.51 377.532 1422.92 382.972 1425.74 387.708C1428.55 392.444 1432.52 396.092 1437.64 398.652C1442.76 401.212 1448.65 402.492 1455.31 402.492C1461.07 402.492 1466.25 401.596 1470.86 399.804C1475.47 398.012 1479.56 395.196 1483.15 391.356L1496.01 406.14C1491.4 411.516 1485.58 415.676 1478.54 418.62C1471.63 421.436 1463.69 422.844 1454.73 422.844Z" fill="#171715"/>
</svg>
