<svg width="705" height="705" viewBox="0 0 705 705" fill="none" xmlns="http://www.w3.org/2000/svg">
<path d="M312.203 231.612C334.458 209.357 370.541 209.356 392.796 231.611L473.388 312.203C495.643 334.458 495.644 370.541 473.389 392.796L392.796 473.389C370.541 495.644 334.459 495.644 312.204 473.389L231.611 392.796C209.356 370.541 209.356 334.459 231.611 312.204L312.203 231.612ZM327.961 414.308C324.781 417.488 324.781 422.643 327.961 425.822L347.351 445.213C350.531 448.392 355.686 448.392 358.865 445.212L393.405 410.673C396.583 407.493 396.583 402.339 393.405 399.16L374.014 379.769C370.834 376.59 365.68 376.589 362.5 379.768L327.961 414.308ZM358.257 340.987C355.078 344.167 355.079 349.321 358.258 352.501L398.554 392.797C401.733 395.976 406.887 395.976 410.066 392.797L444.606 358.257C447.785 355.078 447.785 349.924 444.606 346.744L404.31 306.448C401.131 303.269 395.976 303.268 392.797 306.448L358.257 340.987ZM260.395 346.743C257.216 349.922 257.216 355.078 260.395 358.257L310.69 408.551C313.869 411.731 319.024 411.731 322.204 408.551L356.743 374.012C359.922 370.832 359.922 365.677 356.743 362.498L306.448 312.204C303.269 309.025 298.114 309.024 294.935 312.203L260.395 346.743ZM312.205 294.936C309.026 298.115 309.026 303.269 312.205 306.448L340.989 335.232C344.168 338.411 349.322 338.411 352.501 335.232L387.041 300.692C390.22 297.513 390.22 292.359 387.041 289.179L358.258 260.396C355.078 257.217 349.924 257.217 346.745 260.396L312.205 294.936Z" fill="#171715"/>
</svg>
