<svg width="25" height="24" viewBox="0 0 25 24" fill="none" xmlns="http://www.w3.org/2000/svg">
<path d="M22.1 12.2273C22.1 11.5182 22.0364 10.8364 21.9182 10.1819H12.5V14.0546H17.8818C17.6455 15.3001 16.9364 16.3546 15.8727 17.0637V19.5819H19.1182C21.0091 17.8364 22.1 15.2728 22.1 12.2273Z" fill="#4285F4"/>
<path d="M12.5 21.9996C15.2 21.9996 17.4637 21.1087 19.1182 19.5814L15.8728 17.0632C14.9818 17.6632 13.8455 18.0269 12.5 18.0269C9.90003 18.0269 7.69094 16.2723 6.90003 13.9087H3.57275V16.4905C5.21821 19.7541 8.59094 21.9996 12.5 21.9996Z" fill="#34A853"/>
<path d="M6.9 13.9004C6.7 13.3004 6.58182 12.664 6.58182 12.0004C6.58182 11.3367 6.7 10.7004 6.9 10.1004V7.51855H3.57273C2.89091 8.86401 2.5 10.3822 2.5 12.0004C2.5 13.6186 2.89091 15.1367 3.57273 16.4822L6.16364 14.464L6.9 13.9004Z" fill="#FBBC05"/>
<path d="M12.5 5.98182C13.9728 5.98182 15.2818 6.49091 16.3273 7.47273L19.1909 4.60909C17.4546 2.99091 15.2 2 12.5 2C8.59094 2 5.21821 4.24545 3.57275 7.51818L6.90003 10.1C7.69094 7.73636 9.90003 5.98182 12.5 5.98182Z" fill="#EA4335"/>
</svg>
