<svg width="38" height="38" viewBox="0 0 38 38" fill="none" xmlns="http://www.w3.org/2000/svg">
<rect width="37.6985" height="37.6985" rx="18.8492" fill="#F2F2F2"/>
<path d="M15.1369 7.71231C17.1872 5.66212 20.5113 5.66208 22.5616 7.71231L29.9862 15.1369C32.0363 17.1872 32.0363 20.5113 29.9862 22.5616L22.5616 29.9862C20.5113 32.0364 17.1872 32.0364 15.1369 29.9862L7.71231 22.5616C5.66206 20.5113 5.66206 17.1872 7.71231 15.1369L15.1369 7.71231ZM16.5871 24.542C16.2945 24.8349 16.2943 25.3099 16.5871 25.6027L18.3735 27.3891C18.6662 27.6818 19.1412 27.6816 19.4341 27.3891L22.6161 24.2071C22.909 23.9142 22.909 23.4393 22.6161 23.1464L20.8297 21.36C20.5368 21.0671 20.0619 21.0671 19.769 21.36L16.5871 24.542ZM19.3789 17.7879C19.086 18.0808 19.086 18.5557 19.3789 18.8486L23.0912 22.5609C23.3841 22.8538 23.859 22.8538 24.1519 22.5609L27.3338 19.3789C27.6265 19.086 27.6267 18.6111 27.3338 18.3182L23.6215 14.6059C23.3287 14.3131 22.8538 14.3132 22.5609 14.6059L19.3789 17.7879ZM10.3633 18.3182C10.0704 18.6111 10.0705 19.086 10.3633 19.3789L14.9968 24.0124C15.2896 24.3053 15.7645 24.3053 16.0574 24.0124L19.2394 20.8304C19.5322 20.5375 19.5323 20.0626 19.2394 19.7697L14.6059 15.1362C14.313 14.8435 13.8381 14.8434 13.5453 15.1362L10.3633 18.3182ZM15.1362 13.5453C14.8435 13.8382 14.8434 14.3131 15.1362 14.6059L17.7879 17.2576C18.0807 17.5503 18.5557 17.5502 18.8486 17.2576L22.0305 14.0756C22.3234 13.7827 22.3233 13.3078 22.0305 13.0149L19.3789 10.3633C19.086 10.0704 18.6111 10.0704 18.3182 10.3633L15.1362 13.5453Z" fill="#171715"/>
</svg>
